<?xml version="1.0" standalone="no"?>
<!DOCTYPE svg PUBLIC "-//W3C//DTD SVG 20010904//EN"
 "http://www.w3.org/TR/2001/REC-SVG-20010904/DTD/svg10.dtd">
<svg version="1.0" xmlns="http://www.w3.org/2000/svg"
 width="16.000000pt" height="16.000000pt" viewBox="0 0 16.000000 16.000000"
 preserveAspectRatio="xMidYMid meet">
<metadata>
Created by potrace 1.11, written by Peter Selinger 2001-2013
</metadata>
<g transform="translate(0.000000,16.000000) scale(0.001429,-0.001429)"
fill="#000000" stroke="none">
<path d="M5568 11133 c-17 -38 -32 -70 -33 -73 -1 -3 -25 -54 -53 -113 -29
-60 -52 -110 -52 -112 0 -1 -29 -64 -65 -140 -36 -75 -65 -141 -65 -146 0 -5
-4 -9 -8 -9 -4 0 -9 -10 -9 -22 -1 -13 -7 -24 -12 -26 -5 -2 -17 -25 -26 -53
-9 -27 -20 -49 -24 -49 -4 0 -8 -6 -8 -12 0 -7 -24 -62 -53 -123 -109 -229
-182 -387 -185 -395 -1 -3 -16 -36 -34 -75 -71 -150 -113 -239 -142 -301 -67
-147 -89 -194 -137 -297 -28 -59 -51 -110 -51 -112 -1 -3 -12 -26 -25 -53 -14
-26 -40 -81 -59 -122 -33 -73 -49 -107 -157 -335 -29 -60 -53 -116 -53 -122 0
-7 -4 -13 -9 -13 -4 0 -8 -4 -8 -9 0 -5 -21 -53 -46 -108 -41 -87 -93 -199
-99 -213 -2 -3 -6 -15 -10 -27 -4 -13 -11 -23 -16 -23 -5 0 -9 -6 -9 -13 0 -7
-11 -35 -24 -63 -46 -97 -84 -179 -85 -186 -1 -5 -10 -24 -21 -43 -11 -20 -20
-42 -20 -49 0 -18 23 -27 40 -16 7 5 24 4 36 0 14 -6 26 -5 29 1 4 5 11 7 16
4 12 -8 107 -10 114 -3 3 3 22 2 41 -2 18 -4 34 -4 34 0 0 4 18 4 40 0 22 -4
40 -4 40 0 0 4 17 4 38 1 20 -4 58 -4 84 -1 26 4 53 3 60 -1 6 -4 19 -4 28 1
9 5 22 5 30 0 8 -5 21 -5 30 0 9 5 22 5 30 0 7 -4 24 -4 36 0 14 6 26 5 29 0
3 -5 18 -5 35 0 17 5 30 5 30 0 0 -5 13 -5 30 0 17 5 30 5 30 0 0 -5 13 -5 30
0 17 5 30 6 30 2 0 -4 16 -7 35 -7 19 0 35 3 35 7 0 4 14 3 30 -2 19 -5 30 -5
30 1 0 6 4 7 10 4 13 -8 108 -11 115 -3 3 3 22 2 41 -2 18 -4 34 -4 34 0 0 4
18 4 40 0 22 -4 40 -4 40 0 0 4 17 4 38 1 20 -4 53 -4 72 -1 19 3 47 3 63 -1
15 -4 27 -4 27 1 0 5 13 5 30 0 17 -5 30 -5 30 0 0 5 13 5 30 0 17 -5 30 -5
30 0 0 5 13 5 30 0 17 -5 30 -5 30 0 0 5 13 5 30 0 17 -5 30 -5 30 0 0 5 13 5
30 0 17 -5 30 -5 30 0 0 5 13 5 30 0 17 -5 30 -5 30 0 0 5 13 5 30 0 17 -5 30
-5 30 0 0 5 13 5 30 0 17 -5 30 -5 30 0 0 5 12 5 28 1 28 -7 74 -6 98 3 7 3
16 1 19 -4 3 -5 18 -5 35 0 16 5 32 5 35 0 3 -4 21 -4 40 0 19 4 37 4 40 0 3
-5 18 -5 34 0 16 4 32 6 35 2 8 -7 74 -7 82 0 3 3 21 2 40 -2 18 -4 34 -4 34
0 0 4 18 4 40 0 22 -4 40 -4 40 0 0 4 17 4 38 1 20 -4 53 -4 72 -1 19 3 47 3
63 -1 15 -4 27 -4 27 1 0 5 13 5 30 0 17 -5 30 -5 30 0 0 5 13 5 30 0 17 -5
30 -5 30 0 0 5 13 5 30 0 17 -5 30 -5 30 0 0 5 13 5 30 0 17 -5 30 -5 30 0 0
5 13 5 30 0 17 -5 30 -5 30 0 0 5 13 5 30 0 17 -5 30 -5 30 0 0 5 13 5 30 0
17 -5 30 -5 30 0 0 5 13 5 30 0 17 -5 30 -5 30 0 0 5 12 5 28 2 15 -4 38 -6
52 -5 29 2 64 3 98 3 29 0 44 8 37 21 -4 5 -2 9 3 9 5 0 15 15 22 33 8 17 31
70 54 117 22 47 39 88 38 93 -1 4 3 7 8 7 5 0 9 3 8 8 -1 4 13 39 31 77 35 73
81 171 124 265 14 30 46 100 72 155 161 343 192 410 191 415 0 3 10 23 22 45
22 41 142 294 142 300 0 2 27 60 60 129 33 70 60 130 61 134 1 4 11 25 22 47
12 22 22 42 22 45 2 5 54 116 100 212 24 49 24 53 8 62 -10 6 -20 11 -23 11
-3 1 -50 23 -105 49 -55 26 -125 59 -155 73 -30 14 -107 50 -170 80 -105 50
-157 74 -170 78 -3 1 -58 27 -124 58 -65 31 -119 57 -121 57 -2 0 -59 26 -126
59 -68 32 -146 69 -174 81 -27 12 -95 44 -150 70 -109 52 -199 94 -285 133
-30 13 -99 45 -152 71 -54 25 -102 46 -108 46 -5 0 -10 4 -10 10 0 5 -3 9 -7
8 -5 -1 -43 14 -86 35 -44 20 -80 37 -82 37 -1 0 -61 27 -131 61 -144 68 -249
118 -339 159 -33 15 -100 47 -150 70 -49 23 -110 51 -135 62 -25 11 -53 24
-62 29 -15 8 -23 -2 -50 -58z"/>
<path d="M3382 8962 c-20 -3 -49 -39 -88 -107 -6 -11 -122 -197 -257 -413
-136 -216 -247 -397 -247 -402 0 -6 -4 -10 -9 -10 -5 0 -14 -13 -21 -30 -7
-16 -15 -30 -19 -30 -3 0 -15 -18 -25 -40 -11 -22 -22 -40 -26 -40 -4 0 -11
-8 -14 -17 -7 -20 -7 -21 -94 -158 -35 -55 -68 -107 -73 -115 -101 -163 -311
-498 -317 -505 -4 -5 -11 -17 -15 -25 -4 -8 -16 -28 -27 -45 -11 -16 -23 -38
-26 -47 -4 -10 -10 -18 -15 -18 -5 0 -9 -4 -9 -9 0 -8 -217 -360 -288 -467 -6
-10 -16 -29 -22 -41 -5 -13 -14 -23 -20 -23 -6 0 -9 -4 -6 -9 8 -12 63 -19 77
-11 6 4 26 4 45 0 19 -4 36 -4 39 0 3 4 21 4 40 0 19 -4 35 -4 35 0 0 4 18 4
40 0 22 -4 40 -4 40 0 0 4 15 4 34 0 19 -4 39 -4 46 0 7 4 26 4 44 1 17 -4 46
-4 64 0 18 3 35 3 37 -1 3 -5 17 -5 33 -1 15 4 42 4 60 0 17 -4 34 -3 37 1 3
4 20 5 37 1 18 -4 49 -4 68 -1 19 3 50 3 68 -1 17 -4 32 -3 32 1 0 4 18 4 40
0 22 -4 40 -4 40 0 0 4 15 4 34 0 19 -4 39 -4 46 0 7 4 26 4 44 1 17 -4 46 -4
64 0 18 3 35 3 37 -1 3 -5 17 -5 33 -1 15 4 42 4 60 0 17 -4 34 -3 37 1 3 4
20 5 37 1 18 -4 49 -4 68 -1 19 3 50 3 68 -1 17 -4 32 -3 32 1 0 4 18 4 40 0
22 -4 40 -4 40 0 0 4 15 4 34 0 19 -4 39 -4 46 0 7 4 26 4 44 1 17 -4 46 -4
64 0 18 3 35 3 37 -1 3 -5 17 -5 33 -1 15 4 42 4 60 0 17 -4 34 -3 37 1 3 4
20 5 37 1 18 -4 49 -4 68 -1 19 3 50 3 68 -1 17 -4 32 -3 32 1 0 4 18 4 40 0
22 -4 40 -4 40 0 0 4 15 4 34 0 19 -4 39 -4 46 0 7 4 26 4 44 1 17 -4 46 -4
64 0 18 3 35 3 37 -1 3 -5 17 -5 33 -1 15 4 42 4 60 0 17 -4 34 -3 37 1 3 4
20 5 37 1 18 -4 49 -4 68 -1 19 3 50 3 68 -1 17 -4 32 -3 32 1 0 4 18 4 40 0
22 -4 40 -4 40 0 0 4 15 4 34 0 19 -4 39 -4 46 0 7 4 26 4 44 1 17 -4 46 -4
64 0 18 3 35 3 37 -1 3 -5 17 -5 33 -1 15 4 42 4 60 0 17 -4 34 -3 37 1 3 4
20 5 37 1 18 -4 47 -4 63 -1 17 3 44 3 61 -1 18 -3 38 -3 44 1 7 4 26 4 41 0
16 -5 31 -5 34 -1 2 5 23 5 45 1 22 -4 40 -4 40 0 0 4 18 4 40 0 22 -4 40 -4
40 0 0 4 15 4 34 0 19 -4 39 -4 46 0 7 4 27 4 46 0 19 -4 34 -4 34 0 0 4 18 4
40 0 22 -4 40 -4 40 0 0 4 15 5 33 1 17 -4 41 -6 52 -5 11 1 32 3 48 3 15 1
39 1 55 2 15 0 34 0 42 0 8 -1 26 -1 40 0 14 0 32 0 40 0 19 -2 59 0 85 3 11
1 32 -1 47 -5 15 -4 30 -4 33 1 3 4 21 4 40 0 19 -4 37 -4 40 0 2 4 23 4 45 0
22 -4 43 -4 45 0 3 4 21 4 40 0 19 -4 35 -4 35 0 0 4 16 4 35 0 19 -4 37 -4
40 0 2 4 23 4 45 0 22 -4 43 -4 45 0 3 4 21 4 40 0 19 -4 37 -4 40 0 3 5 18 5
33 1 15 -4 36 -6 47 -5 11 1 32 3 48 3 15 1 39 1 55 2 15 0 34 0 42 0 8 -1 26
-1 40 0 14 0 32 0 40 0 26 -2 54 -1 75 3 11 1 34 0 51 -4 18 -4 38 -4 44 0 7
4 26 4 41 0 16 -5 31 -5 34 -1 2 5 23 5 45 1 22 -4 40 -4 40 0 0 4 18 4 40 0
22 -4 40 -4 40 0 0 4 15 4 34 0 19 -4 39 -4 46 0 7 4 27 4 46 0 19 -4 34 -4
34 0 0 4 18 4 40 0 22 -4 40 -4 40 0 0 4 15 5 33 1 17 -4 41 -6 52 -5 11 1 32
3 48 3 15 1 39 1 55 2 15 0 34 0 42 0 8 -1 26 -1 40 0 14 0 32 0 40 0 19 -2
59 0 85 3 11 1 32 -1 47 -5 15 -4 30 -4 33 1 3 4 21 4 40 0 19 -4 37 -4 40 0
2 4 23 4 45 0 22 -4 43 -4 45 0 3 4 21 4 40 0 19 -4 35 -4 35 0 0 4 16 4 35 0
19 -4 37 -4 40 0 2 4 23 4 45 0 22 -4 43 -4 45 0 3 4 21 4 40 0 19 -4 37 -4
40 0 3 5 18 5 33 1 15 -4 36 -6 47 -5 11 1 32 3 48 3 15 1 39 1 55 2 15 0 34
0 42 0 8 -1 26 -1 40 0 14 0 32 0 40 0 8 -1 26 -1 40 0 34 2 60 2 95 0 17 -1
37 -1 45 -1 8 1 79 0 158 -1 78 -1 145 0 148 3 2 3 22 2 44 -2 22 -4 40 -5 39
-1 0 3 -18 33 -39 66 -21 33 -57 91 -81 130 -23 38 -48 76 -56 83 -7 7 -13 20
-13 28 0 8 -4 14 -9 14 -5 0 -11 8 -14 18 -6 19 -39 74 -48 82 -4 3 -15 19
-25 37 -11 18 -61 99 -112 180 -51 81 -99 157 -105 168 -7 11 -29 45 -49 77
-21 31 -38 61 -38 66 0 5 -9 17 -20 27 -10 9 -18 20 -17 24 1 3 -17 33 -39 66
-22 33 -44 67 -47 75 -4 8 -15 27 -25 42 -9 14 -43 68 -75 120 -32 51 -119
190 -193 308 -75 118 -138 222 -142 230 -3 8 -9 17 -12 20 -4 3 -27 37 -50 75
-23 39 -43 71 -45 72 -1 2 -7 -7 -13 -20 -24 -49 -122 -259 -122 -262 0 -2
-25 -56 -56 -121 -31 -66 -72 -153 -90 -194 -19 -41 -42 -88 -50 -103 -9 -16
-14 -39 -11 -53 2 -13 1 -24 -2 -24 -3 0 -6 -13 -6 -30 0 -16 3 -30 6 -30 4 0
3 -17 -1 -38 -4 -21 -3 -48 1 -60 5 -12 4 -24 -1 -27 -6 -3 -6 -15 0 -30 6
-16 6 -25 0 -25 -5 0 -7 -7 -3 -16 5 -14 1 -16 -20 -12 -14 3 -31 2 -37 -2 -7
-4 -27 -4 -46 0 -19 4 -36 5 -38 1 -3 -4 -17 -6 -33 -5 -47 4 -75 5 -141 4
-34 -1 -67 2 -72 5 -6 3 -10 2 -10 -3 0 -5 -17 -6 -40 -2 -22 4 -42 5 -44 2
-7 -6 -96 -8 -96 -2 0 3 -20 5 -45 5 -25 0 -45 -3 -45 -6 0 -3 -20 -3 -43 1
-24 3 -52 3 -62 0 -10 -3 -38 -3 -62 0 -23 4 -43 4 -43 0 0 -4 -18 -4 -40 0
-22 4 -42 5 -44 2 -7 -6 -96 -8 -96 -2 0 3 -20 5 -45 5 -25 0 -45 -3 -45 -6 0
-3 -20 -3 -43 1 -24 3 -52 3 -62 0 -11 -4 -36 -3 -57 0 -21 4 -40 4 -43 0 -3
-4 -23 -4 -45 0 -22 4 -42 4 -45 0 -3 -4 -23 -4 -45 0 -22 4 -40 5 -40 1 0 -3
-28 -5 -62 -3 -104 4 -238 3 -248 -3 -5 -3 -11 -1 -14 4 -3 4 -24 5 -46 1 -22
-4 -40 -4 -40 0 0 4 -18 4 -40 0 -22 -4 -43 -3 -46 1 -3 5 -9 7 -13 5 -8 -6
-43 -7 -178 -6 -50 0 -95 0 -100 -1 -4 -1 -12 0 -18 1 -5 1 -37 1 -70 0 -33
-1 -69 -1 -80 0 -11 1 -27 1 -35 1 -8 0 -33 0 -55 0 -22 0 -46 0 -52 0 -24 -1
-48 -2 -106 -1 -32 0 -62 -2 -67 -5 -5 -3 -11 -1 -14 4 -3 4 -24 5 -46 1 -22
-4 -40 -4 -40 0 0 4 -18 4 -40 0 -22 -4 -43 -3 -46 1 -3 5 -9 7 -13 5 -8 -6
-42 -7 -179 -6 -51 0 -97 -2 -102 -5 -5 -3 -11 -1 -14 4 -3 4 -24 5 -46 1 -22
-4 -40 -4 -40 0 0 4 -18 4 -40 0 -22 -4 -43 -3 -46 1 -3 5 -9 7 -13 5 -10 -6
-65 -8 -184 -4 -53 2 -97 0 -97 -3 0 -4 -17 -3 -37 0 -21 4 -55 4 -75 1 -21
-4 -38 -4 -38 0 0 4 -19 4 -42 1 -24 -4 -62 -4 -85 -1 -24 4 -43 3 -43 0 0 -4
-17 -4 -37 -1 -21 4 -57 4 -80 1 -23 -4 -47 -4 -54 0 -6 4 -26 4 -45 0 -19 -4
-36 -4 -39 0 -3 4 -20 4 -39 0 -19 -4 -38 -5 -41 -2 -3 3 -22 5 -43 4 -28 -2
-34 0 -25 9 8 8 9 19 3 35 -6 14 -6 26 0 29 6 3 6 15 0 30 -5 14 -6 27 0 30 8
5 4 50 -6 66 -2 4 0 10 5 14 7 3 7 15 1 30 -5 14 -5 27 -1 30 5 3 7 14 4 24
-5 20 0 22 57 21 14 -1 32 -1 40 -1 69 3 121 2 130 -4 6 -4 25 27 46 72 20 43
55 119 79 168 24 50 57 122 75 160 130 282 129 278 128 289 0 5 4 12 9 15 11
8 73 143 73 159 0 7 4 12 9 12 5 0 15 17 22 38 6 20 18 48 25 62 17 31 123
257 134 286 7 18 5 23 -14 26 -13 3 -33 1 -44 -3 -12 -5 -22 -4 -22 1 0 5 -13
5 -30 0 -16 -5 -30 -6 -30 -2 0 4 -13 7 -30 7 -16 0 -30 -3 -30 -7 0 -4 -11
-3 -25 2 -15 6 -25 6 -25 0 0 -5 -12 -5 -30 0 -16 5 -30 6 -30 2 0 -8 -78 -7
-86 1 -3 3 -17 2 -30 -3 -14 -6 -26 -6 -29 0 -3 5 -15 6 -28 1 -12 -5 -34 -5
-49 0 -16 4 -28 4 -28 -1 0 -5 -13 -5 -30 0 -17 5 -30 5 -30 0 0 -5 -10 -6
-22 -1 -13 4 -35 5 -50 0 -16 -4 -28 -4 -28 1 0 6 -10 6 -24 0 -13 -4 -27 -5
-32 -1 -5 4 -19 5 -32 3z"/>
<path d="M1783 6082 l-23 -3 0 -1921 c0 -1915 0 -1920 20 -1915 11 3 20 1 20
-3 0 -5 14 -5 30 0 16 5 30 6 30 2 0 -8 204 -6 224 1 7 3 19 1 26 -3 8 -5 21
-5 30 0 9 5 22 5 30 0 8 -5 21 -5 31 1 11 6 20 5 24 -1 3 -6 15 -6 30 0 15 6
27 6 30 0 3 -5 15 -6 29 0 12 4 29 4 36 0 8 -5 21 -5 30 0 9 5 22 5 30 0 8 -5
21 -5 31 1 11 6 20 5 24 -1 3 -6 15 -6 30 0 15 6 27 6 30 0 3 -5 15 -6 29 0
12 4 29 4 36 0 8 -5 21 -5 30 0 9 5 22 5 30 0 8 -5 21 -5 31 1 11 6 20 5 24
-1 3 -6 15 -6 30 0 15 6 27 6 30 0 3 -5 15 -6 29 0 12 4 29 4 36 0 8 -5 21 -5
30 0 9 5 22 5 30 0 8 -5 21 -5 31 1 11 6 20 5 24 -1 3 -6 15 -6 30 0 15 6 27
6 30 0 3 -5 15 -6 29 0 12 4 29 4 36 0 8 -5 21 -5 30 0 9 5 22 5 30 0 8 -5 21
-5 31 1 11 6 20 5 24 -1 3 -6 15 -6 30 0 15 6 27 6 30 0 3 -5 15 -6 29 0 12 4
29 4 36 0 8 -5 21 -5 30 0 9 5 22 5 30 0 8 -5 21 -5 31 1 11 6 20 5 24 -1 3
-6 15 -6 30 0 15 6 27 6 30 0 3 -5 15 -6 29 0 12 4 29 4 36 0 8 -5 21 -5 30 0
9 5 22 5 30 0 8 -5 21 -5 31 1 11 6 20 5 24 -1 3 -6 15 -6 30 0 15 6 27 6 30
0 3 -6 15 -6 29 0 13 5 27 6 30 3 9 -9 58 -10 84 -1 12 4 22 3 22 -2 0 -5 12
-5 30 0 17 5 30 6 30 2 0 -8 53 -8 66 1 6 3 16 2 24 -3 8 -5 21 -5 30 0 9 5
22 5 30 0 8 -5 21 -5 31 1 11 6 20 5 24 -1 4 -6 15 -6 30 0 15 6 25 6 25 0 0
-5 12 -5 30 0 16 5 30 6 30 2 0 -8 53 -8 66 1 6 3 16 2 24 -3 8 -5 21 -5 30 0
9 5 22 5 30 0 8 -5 21 -5 31 1 11 6 20 5 24 -1 4 -6 15 -6 30 0 15 6 25 6 25
0 0 -5 12 -5 30 0 16 5 30 6 30 2 0 -8 53 -8 66 1 6 3 16 2 24 -3 8 -5 21 -5
30 0 9 5 22 5 30 0 8 -5 21 -5 31 1 11 6 20 5 24 -1 4 -6 15 -6 30 0 15 6 25
6 25 0 0 -5 12 -5 30 0 16 5 30 6 30 2 0 -9 58 -8 66 1 4 3 14 2 23 -3 10 -5
23 -5 31 0 8 5 21 5 31 0 9 -5 19 -7 22 -4 8 9 97 10 97 2 0 -4 14 -3 30 2 17
5 30 5 30 0 0 -5 13 -5 30 0 17 5 30 6 30 2 0 -8 145 -6 166 2 8 3 14 1 14 -4
0 -5 13 -5 30 0 17 5 30 6 30 2 0 -8 145 -6 166 2 8 3 14 1 14 -4 0 -5 13 -5
30 0 16 5 30 6 30 2 0 -8 145 -6 166 2 8 3 14 1 14 -4 0 -5 13 -5 30 0 16 5
30 6 30 2 0 -8 145 -6 166 2 8 3 14 2 14 -2 0 -8 68 -8 76 1 4 4 15 2 25 -3
11 -7 20 -7 24 0 3 6 15 6 30 0 14 -5 27 -5 30 0 3 5 18 5 35 0 17 -5 30 -5
30 0 0 5 13 5 30 0 18 -5 30 -5 30 0 0 6 10 6 25 0 15 -6 27 -6 30 0 3 6 15 6
30 0 14 -5 27 -5 30 0 3 5 18 5 35 0 17 -5 30 -5 30 0 0 5 13 5 30 0 18 -5 30
-5 30 0 0 6 10 6 25 0 15 -6 27 -6 30 0 3 6 15 6 30 0 14 -5 27 -5 30 0 3 5
18 5 35 0 17 -5 30 -5 30 0 0 5 13 5 30 0 18 -5 30 -5 30 0 0 6 10 6 25 0 15
-6 27 -6 30 0 3 6 15 6 30 0 14 -5 27 -5 30 0 3 5 18 5 35 0 17 -5 30 -5 30 0
0 5 13 5 30 0 18 -5 30 -5 30 0 0 6 10 6 25 0 15 -6 27 -6 30 0 3 6 15 6 30 0
14 -5 27 -5 30 0 3 5 18 5 35 0 17 -5 30 -5 30 0 0 5 13 5 30 0 17 -5 30 -5
30 0 0 5 10 6 22 1 13 -4 35 -5 50 0 16 4 28 4 28 -1 0 -6 10 -6 24 0 13 5 27
6 30 3 9 -9 58 -10 84 -1 12 4 22 3 22 -2 0 -5 12 -5 30 0 17 5 30 6 30 2 0
-8 53 -8 66 1 6 3 16 2 24 -3 8 -5 21 -5 30 0 9 5 22 5 30 0 8 -5 21 -5 31 1
11 6 20 5 24 -1 4 -6 15 -6 30 0 15 6 25 6 25 0 0 -5 12 -5 30 0 16 5 30 6 30
2 0 -8 53 -8 66 1 6 3 16 2 24 -3 8 -5 21 -5 30 0 9 5 22 5 30 0 8 -5 21 -5
31 1 11 6 20 5 24 -1 4 -6 15 -6 30 0 15 6 25 6 25 0 0 -5 12 -5 30 0 17 5 30
6 30 2 0 -8 53 -8 66 1 6 3 16 2 24 -3 8 -5 21 -5 30 0 9 5 22 5 30 0 8 -5 21
-5 31 1 11 6 20 5 24 -1 4 -6 15 -6 30 0 15 6 25 6 25 0 0 -5 12 -5 30 0 16 5
30 6 30 2 0 -9 58 -8 66 1 4 3 14 2 23 -3 10 -5 23 -5 31 0 8 5 21 5 30 0 9
-5 21 -5 27 -2 13 8 81 7 90 -2 3 -3 13 -1 22 4 10 5 23 5 31 0 8 -5 21 -5 30
0 9 5 22 5 30 0 8 -5 21 -5 31 1 11 6 20 5 24 -1 3 -6 15 -6 29 0 13 5 27 6
30 3 8 -9 86 -9 86 -1 0 4 6 5 13 2 8 -3 33 -6 55 -7 l42 -3 0 1922 0 1922
-25 4 c-14 3 -25 1 -25 -3 0 -5 -11 -4 -25 1 -15 6 -26 6 -30 0 -4 -6 -13 -7
-24 -1 -10 6 -23 6 -31 1 -8 -5 -21 -5 -30 0 -9 5 -23 4 -32 -1 -10 -6 -19 -6
-23 0 -3 7 -15 7 -30 1 -15 -6 -27 -6 -30 0 -3 6 -15 6 -30 0 -15 -6 -25 -6
-25 0 0 5 -12 5 -30 0 -16 -5 -30 -6 -30 -2 0 4 -38 7 -85 7 -47 0 -85 -3 -85
-7 0 -4 -11 -3 -25 2 -15 6 -26 6 -30 0 -4 -6 -13 -7 -23 -1 -11 6 -24 6 -34
0 -10 -6 -19 -6 -23 0 -3 7 -15 7 -30 1 -15 -6 -27 -6 -30 0 -3 6 -15 6 -30 0
-15 -6 -25 -6 -25 0 0 5 -12 5 -30 0 -16 -5 -30 -6 -30 -2 0 4 -38 7 -85 7
-47 0 -85 -3 -85 -7 0 -4 -11 -3 -25 2 -15 6 -26 6 -30 0 -4 -6 -13 -7 -23 -1
-11 6 -24 6 -34 0 -10 -6 -19 -6 -23 0 -3 7 -15 7 -30 1 -15 -6 -27 -6 -30 0
-3 6 -15 6 -30 0 -15 -6 -25 -6 -25 0 0 5 -12 5 -30 0 -17 -5 -30 -6 -30 -2 0
4 -38 7 -85 7 -47 0 -85 -3 -85 -7 0 -4 -11 -3 -25 2 -15 6 -26 6 -30 0 -4 -6
-13 -7 -23 -1 -11 6 -24 6 -34 0 -10 -6 -19 -6 -23 0 -3 7 -15 7 -30 1 -15 -6
-27 -6 -30 0 -3 6 -15 6 -30 0 -15 -6 -25 -6 -25 0 0 5 -12 5 -30 0 -17 -5
-30 -6 -30 -2 0 4 -38 7 -85 7 -47 0 -85 -3 -85 -7 0 -4 -11 -3 -25 2 -15 6
-26 6 -30 0 -4 -6 -13 -7 -23 -1 -11 6 -24 6 -34 0 -10 -6 -19 -6 -23 0 -3 7
-15 7 -30 1 -15 -6 -27 -6 -30 0 -3 6 -15 6 -30 0 -15 -6 -25 -6 -25 0 0 5
-12 5 -30 0 -17 -5 -30 -6 -30 -2 0 4 -38 7 -85 7 -47 0 -85 -3 -85 -7 0 -4
-11 -3 -25 2 -15 6 -26 6 -30 0 -4 -6 -13 -7 -23 -1 -11 6 -24 6 -34 0 -10 -6
-19 -6 -23 0 -3 7 -15 7 -30 1 -15 -6 -27 -6 -30 0 -3 6 -15 6 -30 0 -15 -6
-25 -6 -25 0 0 5 -12 5 -30 0 -16 -5 -30 -6 -30 -2 0 4 -38 7 -85 7 -47 0 -85
-3 -85 -7 0 -4 -11 -3 -25 2 -15 6 -26 6 -30 0 -4 -6 -13 -7 -23 -1 -11 6 -24
6 -34 0 -10 -6 -19 -6 -23 0 -3 7 -15 7 -30 1 -15 -6 -27 -6 -30 0 -3 6 -15 6
-30 0 -15 -6 -25 -6 -25 0 0 5 -12 5 -30 0 -16 -5 -30 -6 -30 -2 0 4 -38 7
-85 7 -47 0 -85 -3 -85 -7 0 -4 -11 -3 -25 2 -15 6 -26 6 -30 0 -4 -6 -13 -7
-23 -1 -11 6 -24 6 -34 0 -10 -6 -19 -6 -23 0 -3 7 -15 7 -30 1 -15 -6 -27 -6
-30 0 -3 6 -15 6 -30 0 -15 -6 -25 -6 -25 0 0 5 -12 5 -30 0 -16 -5 -30 -6
-30 -2 0 4 -38 7 -85 7 -47 0 -85 -3 -85 -7 0 -4 -10 -4 -23 1 -13 5 -30 5
-39 0 -10 -6 -19 -6 -23 0 -4 7 -15 7 -30 1 -15 -6 -25 -6 -25 0 0 5 -12 5
-30 0 -16 -5 -30 -6 -30 -2 0 4 -27 7 -60 7 -33 0 -60 -4 -60 -8 0 -5 -5 -5
-11 -2 -14 9 -139 12 -139 3 0 -4 -10 -4 -22 1 -13 5 -33 5 -45 0 -13 -5 -25
-4 -28 1 -3 6 -15 6 -30 0 -15 -6 -25 -6 -25 0 0 5 -12 5 -29 0 -15 -4 -34 -4
-42 0 -7 5 -21 4 -30 -1 -11 -6 -20 -5 -24 1 -4 6 -15 6 -30 0 -14 -5 -25 -6
-25 -2 0 4 -16 7 -35 7 -19 0 -35 -3 -35 -7 0 -4 -11 -3 -25 2 -15 6 -26 6
-30 0 -4 -6 -13 -7 -24 -1 -9 5 -23 6 -31 1 -7 -4 -18 -6 -24 -4 -21 8 -106
10 -106 2 0 -4 -10 -4 -22 1 -13 5 -33 5 -45 0 -13 -5 -25 -4 -28 1 -3 6 -15
6 -30 0 -15 -6 -25 -6 -25 0 0 5 -12 5 -29 0 -15 -4 -34 -4 -42 0 -7 5 -21 4
-30 -1 -11 -6 -20 -5 -24 1 -4 6 -15 6 -30 0 -14 -5 -25 -6 -25 -2 0 4 -16 7
-35 7 -19 0 -35 -3 -35 -7 0 -4 -11 -3 -25 2 -15 6 -26 6 -30 0 -4 -6 -13 -7
-24 -1 -9 5 -23 6 -31 1 -7 -4 -18 -6 -24 -4 -21 8 -106 10 -106 2 0 -4 -10
-4 -22 1 -13 5 -33 5 -45 0 -13 -5 -25 -4 -28 1 -3 6 -15 6 -30 0 -15 -6 -25
-6 -25 0 0 5 -12 5 -29 0 -15 -4 -34 -4 -42 0 -7 5 -21 4 -30 -1 -11 -6 -20
-5 -24 1 -4 6 -15 6 -30 0 -14 -5 -25 -6 -25 -2 0 4 -16 7 -35 7 -19 0 -35 -3
-35 -7 0 -4 -11 -3 -25 2 -15 6 -26 6 -30 0 -4 -6 -13 -7 -24 -1 -9 5 -23 6
-31 1 -7 -4 -18 -6 -24 -4 -21 8 -106 10 -106 2 0 -4 -10 -4 -22 1 -13 5 -33
5 -45 0 -13 -5 -25 -4 -28 1 -3 6 -15 6 -30 0 -15 -6 -25 -6 -25 0 0 5 -12 5
-29 0 -15 -4 -34 -4 -42 0 -7 5 -21 4 -30 -1 -11 -6 -20 -5 -24 1 -4 6 -15 6
-30 0 -14 -5 -25 -6 -25 -2 0 4 -16 7 -35 7 -19 0 -35 -3 -35 -7 0 -4 -11 -3
-25 2 -15 6 -26 6 -30 0 -4 -6 -13 -7 -24 -1 -9 5 -23 6 -31 1 -7 -4 -18 -6
-24 -4 -21 8 -106 10 -106 2 0 -4 -10 -4 -22 1 -13 5 -33 5 -45 0 -13 -5 -25
-4 -28 1 -3 6 -15 6 -30 0 -15 -6 -25 -6 -25 0 0 5 -12 5 -29 0 -15 -4 -34 -4
-42 0 -7 5 -21 4 -30 -1 -11 -6 -20 -5 -24 1 -4 6 -15 6 -30 0 -14 -5 -25 -6
-25 -2 0 4 -16 7 -35 7 -19 0 -35 -3 -35 -7 0 -4 -11 -3 -25 2 -15 6 -26 6
-30 0 -4 -6 -13 -7 -24 -1 -10 6 -23 6 -31 1 -8 -5 -21 -5 -30 0 -9 5 -23 4
-32 -1 -10 -6 -19 -6 -23 0 -3 7 -15 7 -30 1 -13 -5 -25 -6 -27 -2 -2 4 -13 6
-25 4z"/>
</g>
</svg>
